HIERARCHY
ROOT Hips
{
	OFFSET 0.000000 0.000000 0.000000
	CHANNELS 6 Xposition Yposition Zposition Zrotation Yrotation Xrotation 
	JOINT LHipJoint
	{
		OFFSET 0.000000 0.000000 0.000000
		CHANNELS 3 Zrotation Yrotation Xrotation
		JOINT LeftUpLeg
		{
			OFFSET 1.363060 -1.794630 0.839290
			CHANNELS 3 Zrotation Yrotation Xrotation
			JOINT LeftLeg
			{
				OFFSET 2.448110 -6.726130 0.000000
				CHANNELS 3 Zrotation Yrotation Xrotation
				JOINT LeftFoot
				{
					OFFSET 2.562200 -7.039590 0.000000
					CHANNELS 3 Zrotation Yrotation Xrotation
					JOINT LeftToeBase
					{
						OFFSET 0.157640 -0.433110 2.322550
						CHANNELS 3 Zrotation Yrotation Xrotation
						End Site
						{
							OFFSET 0.000000 0.000000 0.000000
						}
					}
				}
			}
		}
	}
	JOINT RHipJoint
	{
		OFFSET 0.000000 0.000000 0.000000
		CHANNELS 3 Zrotation Yrotation Xrotation
		JOINT RightUpLeg
		{
			OFFSET -1.305520 -1.794630 0.839290
			CHANNELS 3 Zrotation Yrotation Xrotation
			JOINT RightLeg
			{
				OFFSET -2.542530 -6.985550 0.000000
				CHANNELS 3 Zrotation Yrotation Xrotation
				JOINT RightFoot
				{
					OFFSET -2.568260 -7.056230 0.000000
					CHANNELS 3 Zrotation Yrotation Xrotation
					JOINT RightToeBase
					{
						OFFSET -0.164730 -0.452590 2.363150
						CHANNELS 3 Zrotation Yrotation Xrotation
						End Site
						{
							OFFSET 0.000000 0.000000 0.000000
						}
					}
				}
			}
		}
	}
}
MOTION
Frames: 25
Frame Time: 0.008333
0.191530 17.305804 1.784373 4.900348 -43.804669 12.143651 -8.252682 1.023485 7.131207 -9.315814 -28.667154 -13.258251 -2.205483 -1.047062 2.935772 0.717217 4.550056 -2.468483 0.631199 0.000000 -26.051800 9.809983 0.257928 2.921571 10.394605 15.704964 -32.343014 -2.167592 -2.855542 58.955972 -5.462637 -31.002388 9.341123 -10.652700 0.000000 -61.026700
0.201951 17.306132 1.788208 4.834041 -43.206162 12.219551 -8.272566 0.954121 7.110027 -9.155864 -29.128738 -13.267775 -2.191463 -1.019954 3.120265 0.711390 4.508438 -2.479596 0.622800 0.000000 -26.173200 9.897975 0.420490 2.857599 10.174311 15.839416 -34.175631 -2.315264 -2.986140 62.201472 -5.123446 -29.604784 13.298367 -11.693200 0.000000 -63.052900
0.212538 17.306314 1.790874 4.760271 -42.638976 12.286469 -8.296777 0.883353 7.079019 -8.998502 -29.547312 -13.285951 -2.178130 -0.989937 3.353322 0.704428 4.451369 -2.513133 0.610100 0.000000 -26.322599 9.978045 0.592417 2.796526 9.978280 15.981096 -36.042997 -2.443929 -3.114434 65.498990 -4.804150 -27.947179 17.145937 -12.321500 -0.000001 -64.215700
0.222912 17.306484 1.792635 4.676351 -42.100290 12.356356 -8.324951 0.811751 7.041698 -8.835174 -29.924126 -13.333039 -2.164918 -0.957063 3.641940 0.695760 4.374945 -2.567185 0.593300 0.000001 -26.523200 10.049761 0.772885 2.744871 9.809353 16.148836 -37.956319 -2.556657 -3.245132 68.848998 -4.515589 -26.094527 20.858586 -12.568500 0.000000 -64.994400
0.233042 17.306751 1.793538 4.580299 -41.590262 12.419013 -8.357925 0.740828 6.996627 -8.671716 -30.253607 -13.389197 -2.152060 -0.920978 3.979330 0.685003 4.276111 -2.642935 0.571999 0.000000 -26.740900 10.115562 0.955934 2.692349 9.689528 16.312593 -39.897052 -2.661762 -3.388422 72.267242 -4.257114 -24.062726 24.273497 -12.408800 0.000000 -65.201300
0.242853 17.307265 1.793857 4.468391 -41.107856 12.478988 -8.396285 0.671080 6.946260 -8.503485 -30.539997 -13.456541 -2.138575 -0.881956 4.361559 0.672935 4.160425 -2.739530 0.547000 0.000000 -26.969899 10.176668 1.138614 2.638484 9.627274 16.471634 -41.865553 -2.770601 -3.550226 75.757101 -4.027829 -21.907231 27.341589 -11.897900 0.000000 -65.107400
0.252228 17.308200 1.794039 4.335101 -40.650261 12.550162 -8.441966 0.602923 6.893608 -8.318682 -30.782064 -13.553422 -2.123105 -0.840046 4.793835 0.659387 4.025985 -2.857912 0.518399 0.000000 -27.220301 10.232984 1.319245 2.587018 9.626773 16.634222 -43.871330 -2.894514 -3.733257 79.312137 -3.824416 -19.680139 30.066613 -11.109101 -0.000000 -65.069200
0.261387 17.309736 1.794271 4.174562 -40.216440 12.631116 -8.496332 0.536271 6.839684 -8.114146 -30.988958 -13.664695 -2.104161 -0.795639 5.263050 0.646498 3.888430 -2.997622 0.487800 0.000000 -27.462000 10.285097 1.495165 2.532371 9.700487 16.788689 -45.900838 -3.047514 -3.940522 82.927636 -3.640731 -17.420618 32.392123 -10.092700 -0.000000 -65.089600
0.270585 17.312067 1.794971 3.977938 -39.802819 12.732856 -8.561528 0.470610 6.787238 -7.877823 -31.167144 -13.799440 -2.079842 -0.748928 5.768134 0.635421 3.755814 -3.159155 0.456200 -0.000000 -27.692700 10.331359 1.665976 2.475985 9.851892 16.939708 -47.955804 -3.240519 -4.170671 86.586030 -3.471277 -15.161701 34.331571 -8.911300 -0.000001 -65.295800
0.279873 17.315360 1.796453 3.739358 -39.405332 12.865217 -8.639707 0.405742 6.738424 -7.597783 -31.321527 -13.964022 -2.048385 -0.700044 6.308770 0.627154 3.635411 -3.342750 0.424100 0.000000 -27.916100 10.369492 1.831715 2.419112 10.083711 17.091167 -50.035517 -3.482501 -4.420404 90.264434 -3.310850 -12.924414 35.900532 -7.614900 -0.000001 -65.695400
0.289649 17.319789 1.798997 3.450145 -39.020210 13.036118 -8.732640 0.340750 6.695042 -7.262754 -31.461559 -14.162030 -2.007885 -0.649034 6.882632 0.623154 3.538383 -3.546973 0.392700 0.000000 -28.130500 10.395940 1.993282 2.362214 10.395091 17.247331 -52.137707 -3.779203 -4.684844 93.934033 -3.155227 -10.722405 37.125950 -6.244899 -0.000000 -66.240500
0.300235 17.325464 1.802860 3.101651 -38.642237 13.254919 -8.842799 0.275168 6.657858 -6.860727 -31.587360 -14.401838 -1.956910 -0.595579 7.494176 0.623274 3.464252 -3.770558 0.361700 0.000000 -28.348600 10.406112 2.151493 2.307526 10.783789 17.415458 -54.262241 -4.132644 -4.957884 97.561546 -3.001385 -8.563357 38.048481 -4.835501 -0.000000 -66.857700
0.311975 17.332514 1.808182 2.687055 -38.267539 13.527819 -8.971866 0.208229 6.626812 -6.381994 -31.700678 -14.688477 -1.894353 -0.539422 8.145727 0.627346 3.412885 -4.010805 0.331200 0.000000 -28.581700 10.395104 2.307454 2.256516 11.243323 17.602990 -56.407893 -4.541310 -5.233074 101.113141 -2.847531 -6.452445 38.717342 -3.413600 0.000000 -67.458700
0.325250 17.340974 1.815008 2.200481 -37.892006 13.859179 -9.121850 0.139517 6.600375 -5.818884 -31.795708 -15.025695 -1.819682 -0.480057 8.842359 0.633984 3.375579 -4.264182 0.300799 0.000000 -28.847300 10.357854 2.461802 2.211088 11.765439 17.818549 -58.573147 -5.000460 -5.504167 104.556692 -2.693055 -4.394170 39.188607 -2.000900 -0.000000 -67.966800
0.340070 17.350835 1.822839 1.653397 -37.516762 14.237943 -9.287587 0.068082 6.579264 -5.178092 -31.898551 -15.394174 -1.733315 -0.418678 9.562554 0.645824 3.376554 -4.516849 0.272900 -0.000000 -29.132700 10.293383 2.616568 2.169813 12.323590 18.065275 -60.751879 -5.503155 -5.766113 107.864843 -2.538568 -2.395237 39.516429 -0.614199 -0.000000 -68.331100
0.357321 17.362094 1.832208 1.020294 -37.135062 14.679430 -9.479409 -0.005906 6.555399 -4.443398 -31.952389 -15.817183 -1.635262 -0.352784 10.339370 0.654481 3.352252 -4.776059 0.242900 0.000000 -29.496901 10.192860 2.769587 2.136880 12.922299 18.355272 -62.946913 -6.039575 -6.013730 111.011636 -2.384647 -0.454010 39.762804 0.739700 0.000000 -68.510200
0.377389 17.374670 1.843071 0.295406 -36.745787 15.181987 -9.701067 -0.082812 6.523243 -3.612109 -31.935407 -16.287605 -1.526130 -0.281713 11.175052 0.656309 3.277676 -5.037533 0.210200 0.000000 -29.943600 10.051576 2.919432 2.111148 13.554880 18.692739 -65.149749 -6.599428 -6.243177 113.978819 -2.233511 1.413952 39.971633 2.047300 0.000000 -68.527900
0.399770 17.388434 1.854010 -0.480396 -36.358447 15.707508 -9.935755 -0.163624 6.486205 -2.722394 -31.913318 -16.748400 -1.409170 -0.209426 12.006875 0.659526 3.221794 -5.275503 0.181400 0.000000 -30.426300 9.878903 3.069530 2.086328 14.161796 19.065928 -67.347797 -7.175102 -6.454066 116.764672 -2.086765 3.208303 40.172832 3.309399 0.000000 -68.423100
0.425108 17.403290 1.865263 -1.322919 -35.972077 16.258921 -10.190775 -0.248264 6.436109 -1.772257 -31.840064 -17.198488 -1.285525 -0.134534 12.846963 0.658029 3.138348 -5.494170 0.153800 0.000000 -30.962900 9.670559 3.216874 2.061459 14.742215 19.474048 -69.533467 -7.756671 -6.644280 119.360549 -1.945980 4.920336 40.388361 4.521500 0.000000 -68.248000
0.453416 17.419165 1.876486 -2.224231 -35.590623 16.823627 -10.464534 -0.336820 6.369424 -0.776597 -31.710128 -17.614383 -1.157251 -0.057823 13.677256 0.651658 3.027027 -5.689581 0.128100 0.000000 -31.544900 9.428853 3.360462 2.032536 15.276182 19.906972 -71.695403 -8.336865 -6.813247 121.768902 -1.812280 6.543157 40.621485 5.680400 0.000000 -68.054700
0.484600 17.435907 1.887199 -3.169612 -35.220522 17.385159 -10.751209 -0.429267 6.285727 0.241504 -31.536537 -17.969399 -1.026604 0.019218 14.471356 0.643110 2.908756 -5.856574 0.105700 -0.000000 -32.130900 9.159333 3.500601 1.995710 15.731622 20.348417 -73.826737 -8.909702 -6.961178 123.994116 -1.686162 8.072889 40.862209 6.783700 0.000001 -67.877700
0.518388 17.453460 1.897202 -4.147533 -34.866655 17.933230 -11.046988 -0.525137 6.184354 1.262076 -31.321371 -18.246249 -0.895396 0.095517 15.212431 0.634256 2.796780 -5.995248 0.087100 0.000000 -32.690201 8.867024 3.636980 1.948416 16.084149 20.780989 -75.922355 -9.469767 -7.088256 126.040879 -1.567886 9.502394 41.092266 7.824700 -0.000000 -67.729500
0.555083 17.471701 1.906632 -5.164912 -34.532027 18.466833 -11.355217 -0.624580 6.061590 2.278189 -31.041684 -18.437030 -0.763986 0.171531 15.901241 0.624614 2.684514 -6.113417 0.071100 0.000000 -33.221500 8.552311 3.767303 1.887404 16.334448 21.190376 -77.970669 -10.010496 -7.194200 127.911307 -1.457800 10.815375 41.291708 8.787800 0.000000 -67.600400
0.593787 17.490535 1.915267 -6.195790 -34.221995 18.975328 -11.666292 -0.726488 5.922203 3.262495 -30.722665 -18.533368 -0.633810 0.245226 16.519173 0.619599 2.612670 -6.209805 0.058900 -0.000000 -33.669800 8.224465 3.893374 1.813845 16.443259 21.554374 -79.978984 -10.527327 -7.280229 129.609276 -1.355869 12.007955 41.440587 9.665900 0.000001 -67.450299
0.634220 17.509799 1.923203 -7.233298 -33.939111 19.457378 -11.977072 -0.830513 5.768011 4.199206 -30.364661 -18.540135 -0.504963 0.315962 17.067141 0.621872 2.599835 -6.289628 0.049900 0.000000 -34.010500 7.888520 4.015603 1.729673 16.391038 21.854654 -81.951214 -11.013846 -7.347508 131.134093 -1.262447 13.070281 41.527470 10.447300 0.000000 -67.234900
